<svg width="104.000000" height="16.000008" viewBox="0 0 104 16" fill="none" xmlns="http://www.w3.org/2000/svg" xmlns:xlink="http://www.w3.org/1999/xlink">
	<desc>
			Created with Pixso.
	</desc>
	<defs/>
	<path id="Vector" d="M101.07 7.64C100.38 7.64 99.76 7.68 99.19 7.76C98.63 7.84 98.02 7.99 97.36 8.23L97.36 15.76L93.93 15.76L93.93 4.57L96.48 4.57L96.99 5.89C97.67 5.33 98.34 4.94 99 4.7C99.65 4.47 100.34 4.35 101.07 4.35L101.07 7.64Z" fill="#3470FF" fill-opacity="1.000000" fill-rule="evenodd"/>
	<path id="Vector" d="M92.29 15.64C91.87 15.73 91.5 15.8 91.17 15.84C90.86 15.88 90.48 15.9 90.05 15.9C88.79 15.9 87.96 15.49 87.56 14.67C87.01 15.08 86.46 15.39 85.91 15.6C85.36 15.81 84.75 15.92 84.1 15.92C83.51 15.92 82.97 15.79 82.5 15.54C82.03 15.29 81.66 14.96 81.4 14.54C81.13 14.12 81 13.66 81 13.16C81 12.32 81.21 11.65 81.63 11.17C82.07 10.67 82.64 10.27 83.37 9.99C84.09 9.68 85.19 9.32 86.66 8.9L87.25 8.72L87.25 8.65C87.25 7.44 86.7 6.83 85.59 6.83C85.06 6.83 84.48 6.95 83.86 7.19C83.24 7.42 82.53 7.8 81.73 8.33L81.08 5.97C81.98 5.45 82.88 5.05 83.8 4.76C84.73 4.47 85.72 4.33 86.76 4.33C88.02 4.33 88.98 4.67 89.65 5.35C90.34 6.04 90.68 7.21 90.68 8.86L90.68 12.61C90.68 12.89 90.74 13.11 90.86 13.24C90.97 13.35 91.16 13.41 91.43 13.41C91.68 13.41 91.93 13.38 92.18 13.32L92.29 15.64ZM84.43 12.7C84.43 12.97 84.5 13.16 84.63 13.28C84.77 13.39 85 13.45 85.3 13.45C85.85 13.45 86.5 13.22 87.25 12.74L87.25 10.66L86.95 10.75C85.97 11.11 85.3 11.42 84.94 11.7C84.6 11.96 84.43 12.3 84.43 12.7Z" fill="#3470FF" fill-opacity="1.000000" fill-rule="evenodd"/>
	<path id="Vector" d="M75.18 16C73.55 16 72.17 15.68 71.04 15.05C69.91 14.41 69.06 13.56 68.5 12.51C67.95 11.44 67.67 10.29 67.67 9.04C67.67 7.8 67.96 6.66 68.54 5.61C69.13 4.56 70 3.72 71.16 3.09C72.31 2.46 73.71 2.14 75.33 2.14C76.86 2.14 78.2 2.44 79.35 3.03L78.65 5.51C78.16 5.26 77.65 5.07 77.13 4.92C76.6 4.76 76 4.68 75.33 4.68C74.48 4.68 73.74 4.88 73.11 5.28C72.49 5.66 72.02 6.18 71.69 6.85C71.37 7.51 71.22 8.24 71.22 9.06C71.22 10.35 71.56 11.4 72.24 12.23C72.92 13.05 73.9 13.45 75.18 13.45C76.27 13.45 77.44 13.18 78.7 12.65L79.37 15.07C78.84 15.34 78.19 15.57 77.44 15.74C76.69 15.91 75.94 16 75.18 16Z" fill="#3470FF" fill-opacity="1.000000" fill-rule="evenodd"/>
	<path id="Vector" d="M61.78 0L65.21 0L65.21 15.76L61.78 15.76L61.78 0Z" fill="#101828" fill-opacity="1.000000" fill-rule="nonzero"/>
	<path id="Vector" d="M60.14 15.64C59.72 15.73 59.34 15.8 59.02 15.84C58.7 15.88 58.33 15.9 57.89 15.9C56.63 15.9 55.8 15.49 55.41 14.67C54.86 15.08 54.31 15.39 53.75 15.6C53.2 15.81 52.6 15.92 51.94 15.92C51.35 15.92 50.82 15.79 50.35 15.54C49.87 15.29 49.51 14.96 49.24 14.54C48.98 14.12 48.85 13.66 48.85 13.16C48.85 12.32 49.06 11.65 49.48 11.17C49.91 10.67 50.49 10.27 51.21 9.99C51.94 9.68 53.03 9.32 54.5 8.9L55.09 8.72L55.09 8.65C55.09 7.44 54.54 6.83 53.44 6.83C52.9 6.83 52.32 6.95 51.71 7.19C51.09 7.42 50.38 7.8 49.58 8.33L48.93 5.97C49.82 5.45 50.73 5.05 51.65 4.76C52.58 4.47 53.56 4.33 54.6 4.33C55.86 4.33 56.83 4.67 57.5 5.35C58.18 6.04 58.52 7.21 58.52 8.86L58.52 12.61C58.52 12.89 58.58 13.11 58.7 13.24C58.82 13.35 59.01 13.41 59.27 13.41C59.52 13.41 59.77 13.38 60.02 13.32L60.14 15.64ZM52.28 12.7C52.28 12.97 52.34 13.16 52.47 13.28C52.62 13.39 52.84 13.45 53.14 13.45C53.7 13.45 54.35 13.22 55.09 12.74L55.09 10.66L54.8 10.75C53.81 11.11 53.14 11.42 52.79 11.7C52.45 11.96 52.28 12.3 52.28 12.7Z" fill="#101828" fill-opacity="1.000000" fill-rule="nonzero"/>
	<path id="Vector" d="M47.62 15.03C47.23 15.31 46.75 15.52 46.2 15.68C45.66 15.82 45.14 15.9 44.62 15.9C43.23 15.9 42.19 15.59 41.51 14.99C40.83 14.37 40.49 13.49 40.49 12.35L40.49 6.99L38.81 6.99L38.81 5.55L40.92 4.7L41.87 1.69L43.91 1.69L43.91 4.57L47.07 4.57L47.07 6.99L43.91 6.99L43.91 11.52C43.91 12.22 44.03 12.71 44.25 13C44.47 13.29 44.81 13.43 45.25 13.43C45.83 13.43 46.44 13.26 47.09 12.92L47.62 15.03Z" fill="#101828" fill-opacity="1.000000" fill-rule="nonzero"/>
	<path id="Vector" d="M33.19 4.33C34.64 4.33 35.65 4.72 36.2 5.49C36.76 6.27 37.05 7.38 37.05 8.84L37.05 15.76L33.62 15.76L33.62 9.28C33.62 8.36 33.51 7.72 33.28 7.36C33.07 7.01 32.66 6.83 32.04 6.83C31.37 6.83 30.69 7.06 29.99 7.5L29.99 15.76L26.56 15.76L26.56 4.57L29.11 4.57L29.46 5.49C30.75 4.72 31.99 4.33 33.19 4.33Z" fill="#101828" fill-opacity="1.000000" fill-rule="nonzero"/>
	<path id="Vector" d="M17.02 10.79C17.09 11.73 17.32 12.42 17.71 12.86C18.11 13.31 18.71 13.53 19.53 13.53C20.13 13.53 20.69 13.43 21.2 13.22C21.73 12.99 22.32 12.67 22.99 12.23L23.92 14.4C23.22 14.96 22.53 15.37 21.85 15.62C21.17 15.87 20.39 16 19.51 16C18.21 16 17.12 15.75 16.24 15.25C15.36 14.73 14.7 14.04 14.26 13.18C13.84 12.3 13.63 11.3 13.63 10.18C13.63 8.41 14.13 6.99 15.13 5.93C16.13 4.86 17.59 4.33 19.51 4.33C21.03 4.33 22.19 4.74 22.97 5.57C23.78 6.39 24.18 7.55 24.2 9.06C24.2 9.65 24.11 10.23 23.94 10.79L17.02 10.79ZM20.87 8.57C20.88 8.49 20.89 8.38 20.89 8.25C20.87 7.71 20.73 7.31 20.45 7.03C20.18 6.74 19.79 6.6 19.31 6.6C18.15 6.6 17.43 7.25 17.14 8.57L20.87 8.57Z" fill="#101828" fill-opacity="1.000000" fill-rule="nonzero"/>
	<path id="Vector" d="M5.43 10.83L3.54 10.83L3.54 15.76L0 15.76L0 2.36L5.35 2.36C7.27 2.36 8.67 2.69 9.55 3.34C10.43 3.99 10.87 5.01 10.87 6.4C10.87 8.21 10.21 9.43 8.88 10.04L12.65 15.76L8.55 15.76L5.43 10.83ZM3.54 8.37L5.35 8.37C6.05 8.37 6.55 8.22 6.85 7.94C7.17 7.65 7.33 7.2 7.33 6.6C7.33 5.97 7.17 5.51 6.87 5.24C6.57 4.96 6.06 4.82 5.35 4.82L3.54 4.82L3.54 8.37Z" fill="#101828" fill-opacity="1.000000" fill-rule="nonzero"/>
</svg>
